<?xml version="1.0" encoding="UTF-8"?>
<svg id="Layer_2" data-name="Layer 2" xmlns="http://www.w3.org/2000/svg" viewBox="0 0 101.87 28.44">
  <defs>
    <style>
      .cls-1 {
        fill: #2a2b38;
        stroke-width: 0px;
      }
    </style>
  </defs>
  <g id="Layer_1-2" data-name="Layer 1">
    <path class="cls-1" d="M95.13,1.75c-.19-1.26-.23-1.28-1.55-1.28h-6c-1.11,0-1.22.03-1.58.66l-.19.37-11.48,20.17-4.57-7.21,9.74-12.05c.44-.54.6-.93.6-1.22,0-.54-.28-.73-1.48-.73h-5.12c-.77,0-.85.05-1.48.83l-9.04,11.14,1.87-10.35c.08-.39.12-.64.13-.75.04-.7-.28-.87-1.47-.87h-4.14c-1.36,0-1.45.04-1.69,1.36l-1.63,9.02c-.76-6.59-5.85-10.86-13.39-10.86h-.05c-5.85,0-10.72,2.54-13.57,6.66.17.1.33.21.52.32.08.05.14.09.17.1,0,0,.01,0,.02.01.12.08.73.41,1.04.56.68.34,1.49.7,2.24.98l.06.02c.83.31,1.62.61,2.25.93l.09.04s.05.02.07.04c0,0,.01-.01.02-.02.01,0,.03.01.04.02,1.49-1.78,3.76-2.87,6.39-2.88,3.65,0,6.17,2.12,6.71,5.45h.05s.1,0,.15,0c.6,0,1.26.03,1.82.07.36.02.74.02,1.12.02h.05c.46,0,.92-.01,1.33-.03.32-.02,1.02-.08,1.15-.11,0,0,.02,0,.02,0,.04,0,.12-.02.23-.03h.01c.46-.06,1.69-.22,2.56-.57.48-.2,1.24-.58,1.55-.74l.16-.08.07-.04c.08-.04.17-.07.26-.09h.05s.1-.02.15-.02c.03,0,.06,0,.08,0h.04s.03,0,.05.01c.43.07.75.38.9.64,0,.01.01.02.02.03.32.61.18,1.29-.33,1.62-.17.11-1.31.86-2.11,1.16-.75.29-1.81.54-2.52.66-.22.04-.78.12-1.4.21-.19.03-.34.05-.39.06,0,0-.01,0-.02,0-.37.06-.79.12-1.31.19-.59.08-1.39.2-2.42.37l-.31.05h-.05c-.46.09-.83.15-1.15.21-.9,3.5-3.89,5.79-7.78,5.8-4.42-.01-7.21-2.95-6.96-7.31.03-.48.1-.95.2-1.4-.34-.23-.74-.49-1.27-.84l-.25-.17c-.89-.57-1.55-.98-2.09-1.31-.47-.29-.81-.5-1.12-.7l-.19-.11c-.59-.36-1.16-.71-1.36-.85-.3-.2-1.34-.9-2.05-1.61-.66-.65-1.48-1.91-1.49-1.93-.32-.52-.16-1.2.38-1.61.22-.17.51-.27.79-.27.02,0,.04,0,.06,0h.04c.13.02.26.06.38.12l.08.04c.11.06.22.15.3.25l.03.04s.07.08.11.14c.25.3.77.92,1.12,1.28.22.22.5.46.84.7v-.04s.04.02.05.04l.74-4.11.08-.75c.04-.7-.28-.87-1.47-.87h-4.26c-1.36,0-1.45.04-1.69,1.36l-1.53,8.66h-9.86l1.52-8.41c.08-.39.12-.64.13-.75.04-.7-.28-.87-1.47-.87h-4.24c-1.36,0-1.45.04-1.69,1.36L.09,26.33l-.08.74c-.04.7.28.84,1.43.84h4.24c1.36,0,1.45-.01,1.69-1.34l1.82-10.06h9.86l-1.77,9.82c-.11.41-.12.58-.13.74-.04.7.4.84,1.6.84h4.13c1.36,0,1.45-.01,1.69-1.34l1.78-9.88c.53,7.07,5.96,11.74,14.04,11.74h.05c5.15,0,9.34-1.93,12.16-5.53.66-.85,1.25-1.81,1.74-2.83l-1.14,6.33-.08.74c-.04.7.28.84,1.43.84h4.14c1.36,0,1.45-.01,1.69-1.34l1.99-10.97c.42.95.8,1.71,1.86,3.56l4.78,7.91c.5.81.56.85,1.35.84.11,0,.24,0,.39,0h6.87c1.16,0,1.24.03,1.62-.68l.19-.37,2.07-3.93h9.52l.63,3.77c.23,1.18.27,1.21,1.38,1.22h4.69c1.16,0,1.54-.14,1.59-.8.01-.14-.02-.43-.1-.87l-4.1-24.56ZM84.54,17.49l2.99-5.72c.51-.96.94-1.89,1.44-3.15.09,1.43.11,1.77.46,4.06l.67,4.81h-5.56Z"/>
    <path class="cls-1" d="M101.08,26.26c-.46,0-.88.39-.92.87-.04.48.31.87.78.87s.89-.39.93-.85c.04-.5-.3-.88-.79-.88h0ZM100.95,27.87c-.41,0-.7-.33-.66-.74.04-.4.39-.74.78-.74h.01c.39,0,.69.33.65.73-.04.42-.39.75-.78.75Z"/>
    <path class="cls-1" d="M101.36,26.92c0-.06,0-.13-.04-.17-.05-.08-.13-.12-.29-.12h-.16s-.06.02-.07.05l-.19.88s0,.01,0,.02c0,.03.01.05.05.05h.07s.06-.02.07-.06l.07-.34h.03l.19.35s.03.05.08.05h.08s.04-.01.04-.03c0,0,0-.02,0-.02l-.2-.36h.01c.15-.04.24-.15.26-.29ZM100.96,27.07h-.05l.06-.27h.05c.12,0,.17.04.16.13,0,.05-.03.09-.06.12-.03.02-.08.03-.15.03h0Z"/>
    <path class="cls-1" d="M40.59,17.98s.01,0,.02,0c.01,0,.03,0,.04,0,.18,0,.31-.05.49-.15.63-.31,1.36-.73,1.8-.99.24-.14.42-.26.53-.31l.09-.04c.31-.16.79-.41,1.64-.73,1.72-.64,2.17-.72,4.35-1.1l.32-.05c1.03-.17,1.82-.28,2.45-.37.52-.07.92-.13,1.29-.19.02,0,1.45-.21,1.79-.27.64-.11,1.64-.35,2.34-.61.7-.27,1.83-1.01,1.92-1.07.09-.06.05-.23,0-.32-.03-.05-.11-.14-.2-.15h-.04s-.02,0-.02,0h-.03s-.05,0-.05,0c-.03.02-.11.06-.23.11-.36.18-1.11.56-1.62.77-1.01.41-2.33.57-2.83.63-.08,0-.15.02-.18.02-.21.04-.97.11-1.29.13-.43.02-.89.03-1.36.03-.38,0-.77,0-1.13-.02-.64-.04-1.25-.07-1.8-.07h-.05c-.21,0-.42,0-.61.01h-.11c-.97.04-2.68.4-3.08.52-.66.18-2.48.34-3.02.39-.05,0-.12,0-.21,0-.17,0-.38-.01-.64-.06-.42-.09-.71-.23-.85-.31-.48-.25-2.08-1.13-2.63-1.56-.33-.26-1.75-1.28-2.62-1.69l-.1-.05c-.61-.31-1.4-.6-2.23-.92-.77-.3-1.62-.67-2.33-1.02-.28-.14-.96-.5-1.14-.62-.03-.02-.08-.05-.16-.09-.43-.26-1.58-.94-2.35-1.71-.39-.39-.92-1.03-1.18-1.34-.08-.1-.14-.17-.16-.19l-.08-.04h-.04s-.01,0-.02,0h-.04c-.08,0-.17.04-.21.07-.09.07-.19.2-.13.29.05.09.8,1.21,1.34,1.74.54.53,1.36,1.13,1.9,1.49.29.19,1.52.94,1.53.95.31.2.66.42,1.11.69.55.34,1.22.75,2.1,1.32l.27.18c1.85,1.21,2.24,1.47,3.56,2.75.65.62.99,1.03,1.22,1.31l.06.07c.08.11.21.28.37.51.3.42.8,1.09,1.25,1.63.19.23.32.33.69.41h0c.12.02.21.04.3.04h0Z"/>
  </g>
</svg>