<?xml version="1.0" encoding="utf-8"?>
<!-- Generator: Adobe Illustrator 27.5.0, SVG Export Plug-In . SVG Version: 6.00 Build 0)  -->
<svg version="1.1" id="Calque_1" xmlns="http://www.w3.org/2000/svg" xmlns:xlink="http://www.w3.org/1999/xlink" x="0px" y="0px"
	 viewBox="0 0 400 400" style="enable-background:new 0 0 400 400;" xml:space="preserve">
<style type="text/css">
	.st0{fill:#A8A8A8;}
	.st1{fill:#E94E1B;}
	.st2{fill:#F39200;}
	.st3{fill:#FFFFFF;}
</style>
<g>
	<rect x="0" y="0" width="400" height="400"/>
	<path class="st0" d="M391.5,391.5H8.5V8.5h382.9V391.5z M10.6,389.4h378.9V10.6H10.6V389.4z"/>
	<g>
		<polygon class="st1" points="259.8,76.6 206.1,76.6 91,196.9 144.8,196.9 		"/>
		<polygon class="st1" points="193.9,76.6 140.2,76.6 25.1,196.9 78.9,196.9 		"/>
		<polygon class="st2" points="308.5,196.9 254.7,196.9 139.7,76.6 193.5,76.6 		"/>
		<polygon class="st2" points="310.9,130 310.9,75.9 292.1,75.9 292.1,110.4 259.8,76.6 206.1,76.6 321.1,196.9 374.9,196.9 		"/>
	</g>
	<g>
		<path class="st3" d="M37.4,255.8h2.5v22.5h-2.5v-10.4h-8.8v10.4h-2.5v-22.5h2.5v9.4h8.8V255.8z"/>
		<path class="st3" d="M68.3,278.3c-0.3-1-0.6-1.9-0.8-2.9c-0.3-0.9-0.5-1.9-0.8-2.9h-8.1l-1.6,5.7h-2.6c0.7-2.4,1.3-4.6,1.9-6.6
			c0.6-2,1.2-3.9,1.8-5.8s1.2-3.6,1.7-5.2c0.6-1.7,1.2-3.3,1.8-4.9h2.3c0.6,1.6,1.2,3.3,1.8,4.9c0.6,1.7,1.1,3.4,1.7,5.2
			s1.2,3.7,1.8,5.8c0.6,2,1.3,4.2,1.9,6.6H68.3z M66,270c-0.6-1.9-1.1-3.7-1.6-5.5c-0.5-1.8-1.1-3.5-1.7-5.1
			c-0.6,1.6-1.2,3.3-1.7,5.1c-0.5,1.8-1.1,3.6-1.6,5.5H66z"/>
		<path class="st3" d="M91.9,278.8c-1.2,0-2.2-0.2-3.1-0.7c-0.9-0.5-1.6-1.1-2.1-1.9c-0.6-0.8-1-1.7-1.2-2.8
			c-0.3-1.1-0.4-2.3-0.4-3.5v-14.1h2.5v13.8c0,2.3,0.4,3.9,1.2,4.9c0.8,1,1.8,1.5,3.1,1.5c0.6,0,1.2-0.1,1.8-0.4
			c0.5-0.2,1-0.6,1.4-1.2c0.4-0.5,0.7-1.2,0.9-2c0.2-0.8,0.3-1.8,0.3-2.9v-13.8h2.5V270c0,1.3-0.1,2.4-0.4,3.5
			c-0.3,1.1-0.7,2-1.2,2.8c-0.6,0.8-1.3,1.4-2.1,1.9C94.1,278.6,93,278.8,91.9,278.8z"/>
		<path class="st3" d="M126.9,255.8v2.7h-5.7v19.8h-2.5v-19.8h-5.7v-2.7H126.9z"/>
		<path class="st3" d="M145.7,276.1c2.6,0,3.9-1.1,3.9-3.4c0-0.7-0.1-1.3-0.3-1.8c-0.2-0.5-0.5-0.9-0.9-1.3
			c-0.4-0.4-0.9-0.7-1.4-0.9c-0.5-0.3-1-0.5-1.6-0.8c-0.7-0.3-1.3-0.6-1.9-1c-0.6-0.4-1.1-0.8-1.5-1.3c-0.4-0.5-0.8-1.1-1-1.7
			c-0.3-0.7-0.4-1.5-0.4-2.4c0-2,0.5-3.5,1.6-4.6c1.1-1.1,2.5-1.7,4.4-1.7c1.1,0,2.1,0.1,3,0.4c0.9,0.3,1.5,0.6,2,1l-0.8,2.6
			c-0.4-0.3-0.9-0.6-1.6-0.8c-0.7-0.3-1.6-0.4-2.5-0.4c-0.5,0-0.9,0.1-1.3,0.2c-0.4,0.1-0.8,0.3-1.1,0.6c-0.3,0.3-0.6,0.6-0.7,1
			c-0.2,0.4-0.3,0.9-0.3,1.4c0,0.6,0.1,1.1,0.3,1.5c0.2,0.4,0.5,0.8,0.8,1.1c0.3,0.3,0.7,0.6,1.2,0.9c0.5,0.3,1,0.5,1.5,0.8
			c0.8,0.4,1.5,0.8,2.1,1.2c0.6,0.4,1.2,0.9,1.7,1.4c0.5,0.5,0.8,1.2,1.1,1.9c0.3,0.7,0.4,1.6,0.4,2.7c0,2-0.6,3.5-1.7,4.5
			c-1.1,1.1-2.8,1.6-4.9,1.6c-0.7,0-1.4-0.1-2-0.2s-1.1-0.3-1.6-0.4c-0.5-0.2-0.9-0.3-1.2-0.5c-0.3-0.2-0.6-0.3-0.8-0.5l0.8-2.6
			c0.4,0.3,1,0.6,1.8,0.9C143.5,275.9,144.5,276.1,145.7,276.1z"/>
		<path class="st3" d="M192.9,278.8c-1.3,0-2.4-0.3-3.4-0.8c-1-0.5-1.9-1.3-2.7-2.3c-0.7-1-1.3-2.2-1.7-3.7s-0.6-3.1-0.6-5
			c0-1.9,0.2-3.6,0.7-5c0.5-1.5,1.1-2.7,1.9-3.7c0.8-1,1.7-1.8,2.7-2.3c1-0.5,2.1-0.8,3.3-0.8c0.7,0,1.4,0.1,2,0.2
			c0.6,0.1,1.1,0.3,1.6,0.5c0.4,0.2,0.8,0.3,1.1,0.5c0.3,0.2,0.5,0.3,0.6,0.4l-0.7,2.6c-0.2-0.1-0.4-0.3-0.7-0.4
			c-0.3-0.2-0.6-0.3-1-0.5c-0.4-0.2-0.8-0.3-1.2-0.4c-0.4-0.1-0.9-0.1-1.3-0.1c-1,0-1.8,0.2-2.6,0.6c-0.8,0.4-1.4,1-1.9,1.8
			c-0.5,0.8-0.9,1.7-1.2,2.8c-0.3,1.1-0.4,2.4-0.4,3.7c0,1.3,0.1,2.6,0.4,3.7c0.3,1.1,0.6,2.1,1.1,2.8c0.5,0.8,1.1,1.4,1.9,1.8
			c0.8,0.4,1.6,0.6,2.6,0.6c1.2,0,2.1-0.2,2.9-0.5c0.8-0.3,1.3-0.6,1.7-0.8l0.6,2.6c-0.1,0.1-0.3,0.2-0.6,0.4
			c-0.3,0.2-0.7,0.3-1.2,0.5c-0.5,0.2-1,0.3-1.6,0.4C194.3,278.8,193.6,278.8,192.9,278.8z"/>
		<path class="st3" d="M225.7,278.3c-0.3-1-0.6-1.9-0.8-2.9c-0.3-0.9-0.5-1.9-0.8-2.9h-8.1l-1.6,5.7h-2.6c0.7-2.4,1.3-4.6,1.9-6.6
			c0.6-2,1.2-3.9,1.8-5.8s1.2-3.6,1.7-5.2c0.6-1.7,1.2-3.3,1.8-4.9h2.3c0.6,1.6,1.2,3.3,1.8,4.9c0.6,1.7,1.1,3.4,1.7,5.2
			s1.2,3.7,1.8,5.8c0.6,2,1.3,4.2,1.9,6.6H225.7z M223.4,270c-0.6-1.9-1.1-3.7-1.6-5.5c-0.5-1.8-1.1-3.5-1.7-5.1
			c-0.6,1.6-1.2,3.3-1.7,5.1c-0.5,1.8-1.1,3.6-1.6,5.5H223.4z"/>
		<path class="st3" d="M255.1,278.3c-0.4-0.8-0.8-1.7-1.3-2.7c-0.5-1-1-2-1.6-3.1c-0.6-1.1-1.2-2.2-1.8-3.3
			c-0.6-1.1-1.2-2.2-1.8-3.2c-0.6-1-1.2-2-1.8-2.9s-1.1-1.7-1.6-2.4v17.6h-2.5v-22.5h2c0.8,1.1,1.7,2.3,2.6,3.8
			c0.9,1.4,1.8,2.9,2.7,4.4c0.9,1.5,1.8,3,2.6,4.5c0.8,1.5,1.5,2.8,2,3.9v-16.7h2.5v22.5H255.1z"/>
		<path class="st3" d="M285.6,255.8v2.7H280v19.8h-2.5v-19.8h-5.7v-2.7H285.6z"/>
		<path class="st3" d="M298.8,267.1c0-1.9,0.2-3.6,0.7-5.1c0.5-1.5,1.1-2.7,1.9-3.7c0.8-1,1.7-1.7,2.7-2.2c1-0.5,2.2-0.7,3.3-0.7
			c1.2,0,2.3,0.2,3.3,0.7c1,0.5,1.9,1.2,2.7,2.2c0.8,1,1.4,2.2,1.9,3.7c0.5,1.5,0.7,3.2,0.7,5.1c0,1.9-0.2,3.6-0.7,5.1
			c-0.5,1.5-1.1,2.7-1.9,3.7c-0.8,1-1.7,1.7-2.7,2.2c-1,0.5-2.1,0.7-3.3,0.7c-1.2,0-2.3-0.2-3.3-0.7c-1-0.5-2-1.2-2.7-2.2
			c-0.8-1-1.4-2.2-1.9-3.7C299,270.7,298.8,269,298.8,267.1z M301.4,267.1c0,1.4,0.1,2.6,0.4,3.7c0.3,1.1,0.7,2.1,1.2,2.8
			s1.1,1.4,1.9,1.8c0.7,0.4,1.6,0.6,2.5,0.6c0.9,0,1.7-0.2,2.5-0.6c0.7-0.4,1.3-1,1.9-1.8s0.9-1.7,1.2-2.8c0.3-1.1,0.4-2.4,0.4-3.7
			c0-1.4-0.1-2.6-0.4-3.7c-0.3-1.1-0.7-2.1-1.2-2.8s-1.1-1.4-1.9-1.8c-0.7-0.4-1.5-0.6-2.5-0.6c-0.9,0-1.7,0.2-2.5,0.6
			c-0.7,0.4-1.4,1-1.9,1.8s-0.9,1.7-1.2,2.8C301.6,264.5,301.4,265.7,301.4,267.1z"/>
		<path class="st3" d="M343.9,278.3c-0.4-0.8-0.8-1.7-1.3-2.7c-0.5-1-1-2-1.6-3.1c-0.6-1.1-1.2-2.2-1.8-3.3
			c-0.6-1.1-1.2-2.2-1.8-3.2c-0.6-1-1.2-2-1.8-2.9s-1.1-1.7-1.6-2.4v17.6h-2.5v-22.5h2c0.8,1.1,1.7,2.3,2.6,3.8
			c0.9,1.4,1.8,2.9,2.7,4.4c0.9,1.5,1.8,3,2.6,4.5c0.8,1.5,1.5,2.8,2,3.9v-16.7h2.5v22.5H343.9z"/>
		<path class="st3" d="M366.6,276.1c2.6,0,3.9-1.1,3.9-3.4c0-0.7-0.1-1.3-0.3-1.8c-0.2-0.5-0.5-0.9-0.9-1.3
			c-0.4-0.4-0.9-0.7-1.4-0.9c-0.5-0.3-1-0.5-1.6-0.8c-0.7-0.3-1.3-0.6-1.9-1c-0.6-0.4-1.1-0.8-1.5-1.3c-0.4-0.5-0.8-1.1-1-1.7
			s-0.4-1.5-0.4-2.4c0-2,0.5-3.5,1.6-4.6c1.1-1.1,2.5-1.7,4.4-1.7c1.1,0,2.1,0.1,3,0.4c0.9,0.3,1.5,0.6,2,1l-0.8,2.6
			c-0.4-0.3-0.9-0.6-1.6-0.8c-0.7-0.3-1.6-0.4-2.5-0.4c-0.5,0-0.9,0.1-1.3,0.2c-0.4,0.1-0.8,0.3-1.1,0.6c-0.3,0.3-0.6,0.6-0.7,1
			c-0.2,0.4-0.3,0.9-0.3,1.4c0,0.6,0.1,1.1,0.3,1.5c0.2,0.4,0.5,0.8,0.8,1.1c0.3,0.3,0.7,0.6,1.2,0.9c0.5,0.3,1,0.5,1.5,0.8
			c0.8,0.4,1.5,0.8,2.1,1.2c0.6,0.4,1.2,0.9,1.7,1.4c0.5,0.5,0.8,1.2,1.1,1.9c0.3,0.7,0.4,1.6,0.4,2.7c0,2-0.6,3.5-1.7,4.5
			c-1.1,1.1-2.8,1.6-4.9,1.6c-0.7,0-1.4-0.1-2-0.2c-0.6-0.1-1.1-0.3-1.6-0.4c-0.5-0.2-0.9-0.3-1.2-0.5c-0.3-0.2-0.6-0.3-0.8-0.5
			l0.8-2.6c0.4,0.3,1,0.6,1.8,0.9C364.4,275.9,365.4,276.1,366.6,276.1z"/>
	</g>
	<g>
		<path class="st2" d="M38.2,314.3c0.4,0.5,0.8,1,1.4,1.8c0.6,0.7,1.1,1.6,1.7,2.4c0.6,0.9,1.2,1.8,1.7,2.8c0.6,1,1.1,1.9,1.5,2.8
			h-3.6c-0.5-0.9-0.9-1.7-1.5-2.6c-0.5-0.9-1.1-1.7-1.6-2.5s-1.1-1.6-1.6-2.3c-0.5-0.7-1-1.3-1.4-1.8c-0.3,0-0.6,0-0.9,0
			s-0.6,0-0.9,0h-3v9.2h-3.3V301c0.9-0.2,2-0.4,3.1-0.5c1.1-0.1,2.2-0.1,3.1-0.1c3.3,0,5.8,0.6,7.6,1.9c1.7,1.2,2.6,3.1,2.6,5.6
			c0,1.6-0.4,2.9-1.2,4C41,312.9,39.8,313.7,38.2,314.3z M33.2,303.3c-1.4,0-2.5,0-3.2,0.1v8.9h2.3c1.1,0,2.1-0.1,3.1-0.2
			c0.9-0.1,1.7-0.3,2.3-0.6c0.6-0.3,1.1-0.8,1.4-1.3c0.3-0.6,0.5-1.3,0.5-2.3c0-0.9-0.2-1.6-0.5-2.2c-0.3-0.6-0.8-1.1-1.4-1.4
			c-0.6-0.3-1.3-0.6-2-0.7C34.9,303.3,34,303.3,33.2,303.3z"/>
		<path class="st2" d="M63.6,324.1v-23.5H78v2.8H66.9v7h9.8v2.7h-9.8v8.1h11.9v2.8H63.6z"/>
		<path class="st2" d="M114.7,324.1c-0.5-0.8-1.1-1.8-1.7-2.8c-0.6-1-1.3-2.1-2.1-3.2c-0.7-1.1-1.5-2.3-2.3-3.4
			c-0.8-1.2-1.6-2.3-2.4-3.3c-0.8-1.1-1.6-2.1-2.3-3c-0.7-1-1.4-1.8-2.1-2.5v18.4h-3.2v-23.5h2.6c1.1,1.1,2.2,2.4,3.4,4
			c1.2,1.5,2.4,3.1,3.6,4.6c1.2,1.6,2.3,3.2,3.4,4.7c1.1,1.5,1.9,2.9,2.7,4.1v-17.4h3.2v23.5H114.7z"/>
		<path class="st2" d="M137.9,312.4c0-2,0.3-3.8,0.9-5.3c0.6-1.5,1.4-2.8,2.4-3.9c1-1,2.2-1.8,3.6-2.3c1.4-0.5,2.8-0.8,4.4-0.8
			c1.5,0,2.9,0.3,4.3,0.8s2.5,1.3,3.5,2.3c1,1,1.8,2.3,2.4,3.9c0.6,1.5,0.9,3.3,0.9,5.3c0,2-0.3,3.8-0.9,5.3
			c-0.6,1.5-1.4,2.8-2.4,3.9c-1,1-2.2,1.8-3.5,2.3c-1.3,0.5-2.8,0.8-4.3,0.8c-1.5,0-3-0.3-4.4-0.8c-1.4-0.5-2.6-1.3-3.6-2.3
			c-1-1-1.8-2.3-2.4-3.9C138.2,316.1,137.9,314.4,137.9,312.4z M141.4,312.4c0,1.4,0.2,2.7,0.5,3.9c0.4,1.2,0.9,2.2,1.5,3
			c0.7,0.8,1.5,1.4,2.4,1.9s2,0.7,3.2,0.7c1.2,0,2.3-0.2,3.2-0.7c0.9-0.4,1.8-1.1,2.4-1.9c0.7-0.8,1.2-1.8,1.5-3s0.5-2.5,0.5-3.9
			c0-1.4-0.2-2.7-0.5-3.9c-0.4-1.2-0.9-2.2-1.5-3c-0.7-0.8-1.5-1.4-2.4-1.9c-1-0.4-2-0.7-3.2-0.7c-1.2,0-2.3,0.2-3.2,0.7
			c-1,0.4-1.8,1.1-2.4,1.9c-0.7,0.8-1.2,1.8-1.5,3C141.6,309.6,141.4,310.9,141.4,312.4z"/>
		<path class="st2" d="M199.3,300.6c-0.9,2.5-1.7,4.8-2.5,6.9c-0.8,2.1-1.5,4.1-2.3,6c-0.7,1.9-1.5,3.7-2.2,5.4
			c-0.7,1.7-1.5,3.4-2.3,5.1H187c-0.8-1.7-1.5-3.4-2.3-5.1c-0.7-1.7-1.5-3.5-2.2-5.4c-0.8-1.9-1.5-3.9-2.3-6
			c-0.8-2.1-1.6-4.4-2.4-6.9h3.6c1.2,3.6,2.4,7,3.6,10.3c1.2,3.3,2.4,6.4,3.6,9.3c1.2-2.9,2.5-6,3.6-9.3s2.4-6.8,3.6-10.3H199.3z"/>
		<path class="st2" d="M231.8,324.1c-0.4-1-0.7-2-1.1-3c-0.3-1-0.7-2-1.1-3H219l-2.1,6h-3.4c0.9-2.5,1.8-4.8,2.5-6.9
			c0.8-2.1,1.6-4.1,2.3-6c0.8-1.9,1.5-3.7,2.3-5.4c0.7-1.7,1.5-3.4,2.3-5.1h3c0.8,1.7,1.6,3.4,2.3,5.1c0.7,1.7,1.5,3.5,2.3,5.4
			c0.8,1.9,1.5,3.9,2.3,6c0.8,2.1,1.6,4.4,2.5,6.9H231.8z M228.7,315.4c-0.7-2-1.4-3.9-2.2-5.7c-0.7-1.8-1.5-3.6-2.2-5.3
			c-0.8,1.7-1.5,3.5-2.3,5.3c-0.7,1.8-1.4,3.7-2.1,5.7H228.7z"/>
		<path class="st2" d="M267.7,300.6v2.9h-7.4v20.7h-3.3v-20.7h-7.4v-2.9H267.7z"/>
		<path class="st2" d="M286.8,300.6h3.3v23.5h-3.3V300.6z"/>
		<path class="st2" d="M310.6,312.4c0-2,0.3-3.8,0.9-5.3c0.6-1.5,1.4-2.8,2.4-3.9c1-1,2.2-1.8,3.6-2.3c1.4-0.5,2.8-0.8,4.4-0.8
			c1.5,0,2.9,0.3,4.3,0.8c1.3,0.5,2.5,1.3,3.5,2.3c1,1,1.8,2.3,2.4,3.9c0.6,1.5,0.9,3.3,0.9,5.3c0,2-0.3,3.8-0.9,5.3
			c-0.6,1.5-1.4,2.8-2.4,3.9c-1,1-2.2,1.8-3.5,2.3c-1.3,0.5-2.8,0.8-4.3,0.8c-1.5,0-3-0.3-4.4-0.8c-1.4-0.5-2.6-1.3-3.6-2.3
			c-1-1-1.8-2.3-2.4-3.9C310.9,316.1,310.6,314.4,310.6,312.4z M314.1,312.4c0,1.4,0.2,2.7,0.5,3.9s0.9,2.2,1.5,3
			c0.7,0.8,1.5,1.4,2.4,1.9c1,0.4,2,0.7,3.2,0.7c1.2,0,2.3-0.2,3.2-0.7c1-0.4,1.8-1.1,2.4-1.9c0.7-0.8,1.2-1.8,1.5-3
			s0.5-2.5,0.5-3.9c0-1.4-0.2-2.7-0.5-3.9c-0.4-1.2-0.9-2.2-1.5-3c-0.7-0.8-1.5-1.4-2.4-1.9c-1-0.4-2-0.7-3.2-0.7
			c-1.2,0-2.3,0.2-3.2,0.7c-1,0.4-1.8,1.1-2.4,1.9c-0.7,0.8-1.2,1.8-1.5,3C314.2,309.6,314.1,310.9,314.1,312.4z"/>
		<path class="st2" d="M369.7,324.1c-0.5-0.8-1.1-1.8-1.7-2.8c-0.6-1-1.3-2.1-2.1-3.2c-0.7-1.1-1.5-2.3-2.3-3.4
			c-0.8-1.2-1.6-2.3-2.4-3.3c-0.8-1.1-1.6-2.1-2.3-3c-0.7-1-1.4-1.8-2.1-2.5v18.4h-3.2v-23.5h2.6c1.1,1.1,2.2,2.4,3.4,4
			c1.2,1.5,2.4,3.1,3.6,4.6c1.2,1.6,2.3,3.2,3.4,4.7c1.1,1.5,1.9,2.9,2.7,4.1v-17.4h3.2v23.5H369.7z"/>
	</g>
</g>
</svg>
